<svg width="22" height="18" viewBox="0 0 22 18" fill="none" xmlns="http://www.w3.org/2000/svg">
<path d="M4.29224 17.299V16.2055C4.29224 15.7864 4.0371 15.513 3.59971 15.513C3.38102 15.513 3.1441 15.5859 2.98008 15.8228C2.85251 15.6224 2.67027 15.513 2.3969 15.513C2.21466 15.513 2.03241 15.5677 1.88662 15.7682V15.5495H1.50391V17.299H1.88662V16.3331C1.88662 16.0233 2.05064 15.8775 2.30578 15.8775C2.56092 15.8775 2.68849 16.0415 2.68849 16.3331V17.299H3.0712V16.3331C3.0712 16.0233 3.25345 15.8775 3.49036 15.8775C3.74551 15.8775 3.87308 16.0415 3.87308 16.3331V17.299H4.29224ZM9.96002 15.5495H9.34039V15.021H8.95768V15.5495H8.61142V15.8957H8.95768V16.6976C8.95768 17.0985 9.1217 17.3354 9.55908 17.3354C9.7231 17.3354 9.90535 17.2808 10.0329 17.2079L9.92357 16.8798C9.81423 16.9527 9.68665 16.971 9.59553 16.971C9.41329 16.971 9.34039 16.8616 9.34039 16.6794V15.8957H9.96002V15.5495ZM13.204 15.513C12.9853 15.513 12.8395 15.6224 12.7484 15.7682V15.5495H12.3656V17.299H12.7484V16.3149C12.7484 16.0233 12.8759 15.8593 13.1128 15.8593C13.1857 15.8593 13.2769 15.8775 13.3498 15.8957L13.4591 15.5312C13.3862 15.513 13.2769 15.513 13.204 15.513ZM8.3016 15.6953C8.11936 15.5677 7.86422 15.513 7.59085 15.513C7.15347 15.513 6.86188 15.7317 6.86188 16.078C6.86188 16.3696 7.08057 16.5336 7.46328 16.5882L7.64552 16.6065C7.84599 16.6429 7.95534 16.6976 7.95534 16.7887C7.95534 16.9163 7.80954 17.0074 7.5544 17.0074C7.29926 17.0074 7.09879 16.9163 6.97122 16.8252L6.78898 17.1168C6.98945 17.2626 7.26281 17.3354 7.53618 17.3354C8.04646 17.3354 8.33805 17.0985 8.33805 16.7705C8.33805 16.4607 8.10113 16.2967 7.73665 16.242L7.5544 16.2238C7.39038 16.2055 7.26281 16.1691 7.26281 16.0597C7.26281 15.9322 7.39038 15.8593 7.59085 15.8593C7.80954 15.8593 8.02824 15.9504 8.13758 16.0051L8.3016 15.6953ZM18.4708 15.513C18.2521 15.513 18.1063 15.6224 18.0152 15.7682V15.5495H17.6325V17.299H18.0152V16.3149C18.0152 16.0233 18.1428 15.8593 18.3797 15.8593C18.4526 15.8593 18.5437 15.8775 18.6166 15.8957L18.726 15.5312C18.6531 15.513 18.5437 15.513 18.4708 15.513ZM13.5867 16.4242C13.5867 16.9527 13.9512 17.3354 14.5161 17.3354C14.7713 17.3354 14.9535 17.2808 15.1357 17.135L14.9535 16.8252C14.8077 16.9345 14.6619 16.9892 14.4979 16.9892C14.1881 16.9892 13.9694 16.7705 13.9694 16.4242C13.9694 16.0962 14.1881 15.8775 14.4979 15.8593C14.6619 15.8593 14.8077 15.9139 14.9535 16.0233L15.1357 15.7135C14.9535 15.5677 14.7713 15.513 14.5161 15.513C13.9512 15.513 13.5867 15.8957 13.5867 16.4242ZM17.1222 16.4242V15.5495H16.7395V15.7682C16.6119 15.6041 16.4297 15.513 16.1928 15.513C15.7007 15.513 15.318 15.8957 15.318 16.4242C15.318 16.9527 15.7007 17.3354 16.1928 17.3354C16.4479 17.3354 16.6301 17.2443 16.7395 17.0803V17.299H17.1222V16.4242ZM15.7189 16.4242C15.7189 16.1144 15.9194 15.8593 16.2474 15.8593C16.5572 15.8593 16.7759 16.0962 16.7759 16.4242C16.7759 16.734 16.5572 16.9892 16.2474 16.9892C15.9194 16.971 15.7189 16.734 15.7189 16.4242ZM11.1446 15.513C10.6343 15.513 10.2698 15.8775 10.2698 16.4242C10.2698 16.971 10.6343 17.3354 11.1628 17.3354C11.418 17.3354 11.6731 17.2626 11.8736 17.0985L11.6913 16.8252C11.5455 16.9345 11.3633 17.0074 11.1811 17.0074C10.9441 17.0074 10.7072 16.8981 10.6525 16.5882H11.9465V16.4425C11.9647 15.8775 11.6367 15.513 11.1446 15.513ZM11.1446 15.841C11.3815 15.841 11.5455 15.9868 11.582 16.2602H10.6708C10.7072 16.0233 10.8712 15.841 11.1446 15.841ZM20.6395 16.4242V14.8569H20.2568V15.7682C20.1292 15.6041 19.947 15.513 19.7101 15.513C19.218 15.513 18.8353 15.8957 18.8353 16.4242C18.8353 16.9527 19.218 17.3354 19.7101 17.3354C19.9652 17.3354 20.1475 17.2443 20.2568 17.0803V17.299H20.6395V16.4242ZM19.2362 16.4242C19.2362 16.1144 19.4367 15.8593 19.7647 15.8593C20.0746 15.8593 20.2932 16.0962 20.2932 16.4242C20.2932 16.734 20.0746 16.9892 19.7647 16.9892C19.4367 16.971 19.2362 16.734 19.2362 16.4242ZM6.44271 16.4242V15.5495H6.06V15.7682C5.93243 15.6041 5.75019 15.513 5.51327 15.513C5.02121 15.513 4.6385 15.8957 4.6385 16.4242C4.6385 16.9527 5.02121 17.3354 5.51327 17.3354C5.76841 17.3354 5.95066 17.2443 6.06 17.0803V17.299H6.44271V16.4242ZM5.02121 16.4242C5.02121 16.1144 5.22168 15.8593 5.54972 15.8593C5.85953 15.8593 6.07823 16.0962 6.07823 16.4242C6.07823 16.734 5.85953 16.9892 5.54972 16.9892C5.22168 16.971 5.02121 16.734 5.02121 16.4242Z" fill="white"/>
<path d="M13.9145 2.26392H8.17383V12.5789H13.9145V2.26392Z" fill="#FF5F00"/>
<path d="M8.53856 7.42137C8.53856 5.32557 9.52268 3.46668 11.0353 2.26387C9.92361 1.3891 8.52034 0.860596 6.98949 0.860596C3.36284 0.860596 0.428711 3.79472 0.428711 7.42137C0.428711 11.048 3.36284 13.9821 6.98949 13.9821C8.52034 13.9821 9.92361 13.4536 11.0353 12.5789C9.52268 11.3943 8.53856 9.51718 8.53856 7.42137Z" fill="#EB001B"/>
<path d="M21.6603 7.42137C21.6603 11.048 18.7262 13.9821 15.0995 13.9821C13.5687 13.9821 12.1654 13.4536 11.0537 12.5789C12.5846 11.3761 13.5505 9.51718 13.5505 7.42137C13.5505 5.32557 12.5663 3.46668 11.0537 2.26387C12.1654 1.3891 13.5687 0.860596 15.0995 0.860596C18.7262 0.860596 21.6603 3.81295 21.6603 7.42137Z" fill="#F79E1B"/>
</svg>
