<svg width="29" height="29" viewBox="0 0 29 29" fill="none" xmlns="http://www.w3.org/2000/svg">
<g clip-path="url(#clip0_17_78)">
<path d="M14.0869 0.3479C21.6814 0.3479 27.8369 6.50344 27.8369 14.0979C27.8369 21.6924 21.6814 27.8479 14.0869 27.8479C6.49245 27.8479 0.336914 21.6924 0.336914 14.0979C0.336914 6.50344 6.49245 0.3479 14.0869 0.3479Z" fill="#0A0D12" stroke="#2A2D32" stroke-width="0.5"/>
<path d="M7.78111 14.098L7.79121 17.7999L10.9367 19.6509V21.8182L5.95034 18.8937V13.0155L7.78111 14.098ZM7.78111 10.3961V12.5533L5.94922 11.4696V9.31241L7.78111 8.22876L9.62198 9.31241L7.78111 10.3961ZM12.2503 9.31241L14.0822 8.22876L15.9231 9.31241L14.0822 10.3961L12.2503 9.31241Z" fill="#F0B90B"/>
<path d="M9.10547 17.0326V14.8653L10.9374 15.949V18.1062L9.10547 17.0326ZM12.251 20.4272L14.0829 21.5108L15.9237 20.4272V22.5844L14.0829 23.668L12.251 22.5844V20.4272ZM18.551 9.31241L20.3829 8.22876L22.2237 9.31241V11.4696L20.3829 12.5533V10.3961L18.551 9.31241ZM20.3829 17.7999L20.393 14.098L22.2249 13.0143V18.8925L17.2385 21.8171V19.6498L20.3829 17.7999Z" fill="#F0B90B"/>
<path d="M19.0692 17.0325L17.2373 18.1061V15.9489L19.0692 14.8652V17.0325Z" fill="#F0B90B"/>
<path d="M19.0693 11.1632L19.0793 13.3306L15.9249 15.1815V18.8924L14.093 19.966L12.2611 18.8924V15.1815L9.10659 13.3306V11.1632L10.9463 10.0796L14.0818 11.9395L17.2362 10.0796L19.0771 11.1632H19.0693ZM9.10547 7.46245L14.0829 4.52783L19.0693 7.46245L17.2374 8.5461L14.0829 6.68617L10.9374 8.5461L9.10547 7.46245Z" fill="#F0B90B"/>
</g>
<defs>
<clipPath id="clip0_17_78">
<rect width="28" height="28" fill="white" transform="translate(0.0869141 0.0979004)"/>
</clipPath>
</defs>
</svg>
