<svg width="27" height="24" viewBox="0 0 27 24" fill="none" xmlns="http://www.w3.org/2000/svg">
<path fill-rule="evenodd" clip-rule="evenodd" d="M5.31559 0.870415L0.679217 10.855C0.661575 10.8921 0.655984 10.9341 0.663262 10.9747C0.670541 11.0154 0.690307 11.0525 0.71967 11.0808L13.2414 23.3826C13.277 23.4176 13.3243 23.4371 13.3736 23.4371C13.4229 23.4371 13.4703 23.4176 13.5058 23.3826L26.0276 11.0816C26.0569 11.0533 26.0767 11.0161 26.084 10.9755C26.0912 10.9349 26.0856 10.8929 26.068 10.8558L21.4316 0.871183C21.4167 0.83765 21.3926 0.809244 21.3623 0.789359C21.332 0.769474 21.2968 0.758951 21.2608 0.759048H5.48789C5.45175 0.758587 5.41625 0.768856 5.38568 0.788617C5.35511 0.808378 5.33076 0.836786 5.31559 0.870415Z" fill="#50AF95"/>
<path fill-rule="evenodd" clip-rule="evenodd" d="M14.9816 11.9527C14.8918 11.9594 14.4278 11.9869 13.3927 11.9869C12.5695 11.9869 11.985 11.9624 11.7799 11.9527C8.59836 11.814 6.22362 11.265 6.22362 10.6077C6.22362 9.95045 8.59836 9.40222 11.7799 9.26126V11.406C11.988 11.4208 12.5837 11.4557 13.407 11.4557C14.3949 11.4557 14.8896 11.4149 14.9787 11.4067V9.26274C18.1535 9.40296 20.523 9.95194 20.523 10.6077C20.523 11.2636 18.1542 11.8125 14.9787 11.952L14.9816 11.9527ZM14.9816 9.04093V7.12172H19.4123V4.19507H7.34924V7.12172H11.7791V9.04019C8.17849 9.20414 5.4707 9.91113 5.4707 10.7583C5.4707 11.6056 8.17849 12.3118 11.7791 12.4765V18.6266H14.9809V12.4743C18.5733 12.3103 21.2766 11.6041 21.2766 10.7576C21.2766 9.91114 18.5756 9.20488 14.9809 9.04019L14.9816 9.04093Z" fill="white"/>
</svg>
