<svg width="47" height="16" viewBox="0 0 47 16" fill="none" xmlns="http://www.w3.org/2000/svg">
<path d="M24.0119 5.38473C23.9854 7.48079 25.8731 8.65056 27.2952 9.34598C28.7563 10.0596 29.247 10.5171 29.2414 11.1552C29.2303 12.1319 28.0759 12.5628 26.9954 12.5796C25.1105 12.609 24.0147 12.0689 23.1433 11.6603L22.4643 14.8492C23.3385 15.2536 24.9571 15.6062 26.6357 15.6216C30.5757 15.6216 33.1535 13.6696 33.1674 10.6431C33.1828 6.80216 27.8737 6.58948 27.91 4.87261C27.9225 4.35209 28.4175 3.79659 29.5021 3.65527C30.0389 3.58391 31.5209 3.52934 33.2009 4.30592L33.8603 1.22059C32.9569 0.890368 31.7956 0.57414 30.3498 0.57414C26.6413 0.57414 24.0328 2.55267 24.0119 5.38473ZM40.1969 0.839995C39.4775 0.839995 38.871 1.26117 38.6005 1.90762L32.9722 15.3949H36.9094L37.6929 13.2219H42.5042L42.9587 15.3949H46.4288L43.4007 0.839995H40.1969ZM40.7476 4.77186L41.8838 10.2373H38.772L40.7476 4.77186ZM19.2382 0.839995L16.1348 15.3949H19.8865L22.9886 0.839995H19.2382ZM13.688 0.839995L9.78293 10.7466L8.20333 2.32319C8.0179 1.3829 7.28596 0.839995 6.47316 0.839995H0.0892272L0 1.26257C1.31052 1.54801 2.7995 2.00836 3.70154 2.5009C4.25363 2.80173 4.41117 3.06479 4.59241 3.7798L7.58431 15.3949H11.5493L17.628 0.839995H13.688Z" fill="url(#paint0_linear_17_60)"/>
<defs>
<linearGradient id="paint0_linear_17_60" x1="21.3453" y1="15.9235" x2="21.7824" y2="0.469587" gradientUnits="userSpaceOnUse">
<stop stop-color="#222357"/>
<stop offset="1" stop-color="#254AA5"/>
</linearGradient>
</defs>
</svg>
