<svg width="28" height="20" viewBox="0 0 28 20" fill="none" xmlns="http://www.w3.org/2000/svg">
<path d="M17.6106 0.639893C12.2133 0.639893 7.9375 4.8892 7.9375 10.0981C7.9375 15.3069 12.2834 19.5562 17.6106 19.5562C22.9379 19.5562 27.2838 15.3069 27.2838 10.0981C27.3539 4.8892 22.9379 0.639893 17.6106 0.639893ZM17.6106 13.5934C15.648 13.5934 13.9657 12.0171 13.9657 10.0981C13.9657 8.17899 15.5779 6.60263 17.6106 6.60263C19.6434 6.60263 21.2556 8.17899 21.2556 10.0981C21.1855 12.0171 19.6434 13.5934 17.6106 13.5934Z" fill="#8B3FFD"/>
<path d="M7.93761 3.44995V17.226H4.5029L0.0869141 3.44995H7.93761Z" fill="#8B3FFD"/>
</svg>
