<svg width="25" height="26" viewBox="0 0 25 26" fill="none" xmlns="http://www.w3.org/2000/svg">
<g clip-path="url(#clip0_17_105)">
<path d="M12.5052 25.1669C19.4116 25.1669 25.0104 19.5681 25.0104 12.6617C25.0104 5.75527 19.4116 0.156494 12.5052 0.156494C5.59877 0.156494 0 5.75527 0 12.6617C0 19.5681 5.59877 25.1669 12.5052 25.1669Z" fill="url(#paint0_linear_17_105)"/>
<path fill-rule="evenodd" clip-rule="evenodd" d="M5.65434 12.5265C9.29866 10.9438 11.7247 9.89214 12.943 9.38194C16.4103 7.93462 17.1391 7.68473 17.6077 7.67432C17.7118 7.67432 17.9409 7.69514 18.0971 7.82009C18.222 7.92421 18.2533 8.05957 18.2741 8.1637C18.2949 8.26782 18.3157 8.48648 18.2949 8.65308C18.1075 10.6314 17.2953 15.4315 16.8788 17.6389C16.7018 18.576 16.3582 18.8884 16.025 18.9196C15.2962 18.9821 14.7443 18.4407 14.0467 17.9825C12.943 17.2641 12.3286 16.8163 11.2562 16.1083C10.0171 15.2961 10.8189 14.8484 11.5269 14.1195C11.7143 13.9321 14.9109 11.0167 14.9734 10.7564C14.9838 10.7251 14.9838 10.6002 14.9109 10.5377C14.838 10.4752 14.7339 10.4961 14.6506 10.5169C14.5361 10.5377 12.7868 11.7039 9.38195 14.005C8.88216 14.3486 8.43443 14.5152 8.02835 14.5048C7.58062 14.4944 6.72681 14.2549 6.08125 14.0467C5.30032 13.7968 4.67558 13.6614 4.72764 13.2241C4.75888 12.995 5.07125 12.7659 5.65434 12.5265Z" fill="#8B3FFD"/>
</g>
<defs>
<linearGradient id="paint0_linear_17_105" x1="12.4948" y1="0.156494" x2="12.4948" y2="24.9691" gradientUnits="userSpaceOnUse">
<stop stop-color="white"/>
<stop offset="1" stop-color="white"/>
</linearGradient>
<clipPath id="clip0_17_105">
<rect width="25" height="25" fill="white" transform="translate(0 0.156494)"/>
</clipPath>
</defs>
</svg>
